<svg width="50" height="51" viewBox="0 0 50 51" fill="none" xmlns="http://www.w3.org/2000/svg">
<circle cx="25" cy="25.1221" r="25" fill="white"/>
<path d="M29.6667 21.0354H26.9887V18.8066C26.9887 17.6565 27.0824 16.9321 28.7306 16.9321H29.6979C30.3131 16.9321 30.8123 16.4328 30.8123 15.8177V14.4202C30.8123 13.8373 30.3655 13.3392 29.7837 13.3002C29.1106 13.2545 28.4364 13.2333 27.761 13.2344C24.7376 13.2344 22.531 15.081 22.531 18.4711V21.0354H20.3022C19.687 21.0354 19.1877 21.5347 19.1877 22.1498V24.3787C19.1877 24.9939 19.687 25.4931 20.3022 25.4931L22.531 25.492V34.4086C22.531 35.0237 23.0303 35.523 23.6455 35.523H25.8743C26.4895 35.523 26.9887 35.0237 26.9887 34.4086V25.4898L29.4115 25.4887C29.9776 25.4887 30.4535 25.0641 30.5181 24.5013L30.7733 22.2769C30.8502 21.616 30.3331 21.0354 29.6667 21.0354Z" fill="#2C2C2E"/>
</svg>
