<svg width="50" height="51" viewBox="0 0 50 51" fill="none" xmlns="http://www.w3.org/2000/svg">
<circle cx="25" cy="25.1221" r="25" fill="white"/>
<path d="M20.745 14.7207C17.3552 14.7207 14.5989 17.477 14.5989 20.8668V29.3767C14.5989 32.7665 17.3552 35.5228 20.745 35.5228H29.255C32.6448 35.5228 35.4011 32.7665 35.4011 29.3767V20.8668C35.4011 17.477 32.6448 14.7207 29.255 14.7207H20.745ZM30.6733 18.5029C31.1934 18.5029 31.6189 18.9284 31.6189 19.4485C31.6189 19.9685 31.1934 20.394 30.6733 20.394C30.1533 20.394 29.7278 19.9685 29.7278 19.4485C29.7278 18.9284 30.1533 18.5029 30.6733 18.5029ZM25 19.9212C27.8697 19.9212 30.2005 22.252 30.2005 25.1218C30.2005 27.9915 27.8697 30.3223 25 30.3223C22.1303 30.3223 19.7995 27.9915 19.7995 25.1218C19.7995 22.252 22.1303 19.9212 25 19.9212ZM25 20.8668C22.655 20.8668 20.745 22.7768 20.745 25.1218C20.745 27.4667 22.655 29.3767 25 29.3767C27.345 29.3767 29.255 27.4667 29.255 25.1218C29.255 22.7768 27.345 20.8668 25 20.8668Z" fill="#2C2C2E"/>
</svg>
