<svg width="50" height="51" viewBox="0 0 50 51" fill="none" xmlns="http://www.w3.org/2000/svg">
<circle cx="25" cy="25.1221" r="25" fill="white"/>
<path d="M25 13.1709V29.9028C25 31.2533 23.9602 32.2931 22.6097 32.2931C21.2592 32.2931 20.2195 31.2533 20.2195 29.9028C20.2195 28.5523 21.2592 27.5125 22.6097 27.5125V22.732C18.6778 22.732 15.4389 25.9708 15.4389 29.9028C15.4389 33.8348 18.6778 37.0736 22.6097 37.0736C26.5417 37.0736 29.7805 33.8348 29.7805 29.9028V20.8972C31.2532 21.9463 32.7901 22.732 34.5611 22.732V17.9514C34.448 17.9514 32.7987 17.4278 31.6481 16.4249C30.4972 15.4219 29.7805 14.1628 29.7805 13.1709H25Z" fill="#2C2C2E"/>
</svg>
