<svg width="50" height="51" viewBox="0 0 50 51" fill="none" xmlns="http://www.w3.org/2000/svg">
<circle cx="25" cy="25.1221" r="25" fill="white"/>
<path d="M36.087 18.3946C35.8209 17.3995 35.0364 16.615 34.0413 16.3489C32.2363 15.8652 24.9999 15.8652 24.9999 15.8652C24.9999 15.8652 17.7636 15.8652 15.9586 16.3489C14.9635 16.615 14.179 17.3995 13.9129 18.3946C13.4292 20.1996 13.4292 25.1218 13.4292 25.1218C13.4292 25.1218 13.4292 30.044 13.9129 31.8491C14.179 32.8441 14.9635 33.6286 15.9586 33.8948C17.7636 34.3784 24.9999 34.3784 24.9999 34.3784C24.9999 34.3784 32.2363 34.3784 34.0413 33.8948C35.0376 33.6286 35.8209 32.8441 36.087 31.8491C36.5707 30.044 36.5707 25.1218 36.5707 25.1218C36.5707 25.1218 36.5707 20.1996 36.087 18.3946ZM22.6858 29.1299V21.1137L29.6282 25.1218L22.6858 29.1299Z" fill="#2C2C2E"/>
</svg>
